<?xml version="1.0" encoding="iso-8859-1"?>
<!-- Generator: Adobe Illustrator 18.1.1, SVG Export Plug-In . SVG Version: 6.00 Build 0)  -->
<svg version="1.1" id="Capa_1" xmlns="http://www.w3.org/2000/svg" xmlns:xlink="http://www.w3.org/1999/xlink" x="0px" y="0px"
	 viewBox="0 0 493.665 493.665" style="enable-background:new 0 0 493.665 493.665;" xml:space="preserve">
<g>
	<g>
		<path style="fill:#fff;" d="M186.364,371.744c-28.084,0-55.039-6.292-80.099-18.704l-43.13-21.354l21.354,43.13
			c36.286,73.312,109.589,118.848,191.298,118.848c117.653,0,213.375-95.722,213.375-213.375
			c0-81.708-45.536-155.012-118.848-191.298l-43.138-21.354l21.354,43.138c12.404,25.069,18.696,52.015,18.696,80.107
			C367.225,290.605,286.093,371.744,186.364,371.744z M383.482,190.883c0-31.36-7.356-60.989-20.386-87.317
			c65.053,32.205,109.801,99.226,109.801,176.731c0,108.866-88.252,197.118-197.118,197.118
			c-77.506,0-144.526-44.748-176.731-109.801c26.32,13.03,55.957,20.386,87.317,20.386
			C295.23,388.001,383.482,299.749,383.482,190.883z"/>
		<path style="fill:#fff;" d="M43.724,318.656l63.46-46.097l63.46,46.105l-24.239-74.596l63.46-46.105h-78.449l-24.239-74.596
			l-24.239,74.596H4.503l63.452,46.105L43.724,318.656z M54.535,214.22h40.212l12.429-38.245l12.429,38.245h40.212l-32.539,23.638
			l12.429,38.237l-32.531-23.63l-32.539,23.638l12.429-38.245L54.535,214.22z"/>
		<path style="fill:#fff;" d="M165.14,171.651l55.77-40.529l55.77,40.521l-21.297-65.565l55.77-40.513h-68.938L220.91,0
			l-21.305,65.565h-68.938l55.77,40.521L165.14,171.651z M180.706,81.822h30.718l9.486-29.206l9.486,29.206h30.718l-24.849,18.054
			l9.494,29.206l-24.849-18.045l-24.849,18.054l9.494-29.206L180.706,81.822z"/>
	</g>
</g>
<g>
</g>
<g>
</g>
<g>
</g>
<g>
</g>
<g>
</g>
<g>
</g>
<g>
</g>
<g>
</g>
<g>
</g>
<g>
</g>
<g>
</g>
<g>
</g>
<g>
</g>
<g>
</g>
<g>
</g>
</svg>
